<mxfile host="Electron" modified="2023-05-27T13:56:38.081Z" agent="Mozilla/5.0 (Macintosh; Intel Mac OS X 10_15_7) AppleWebKit/537.36 (KHTML, like Gecko) draw.io/21.2.1 Chrome/112.0.5615.87 Electron/24.1.2 Safari/537.36" etag="L3xFpPRCZw7160Q6okng" version="21.2.1" type="device">
  <diagram name="Page-1" id="H1nZVYqxkzLZFgEqRADx">
    <mxGraphModel dx="470" dy="2675" grid="1" gridSize="10" guides="1" tooltips="1" connect="1" arrows="1" fold="1" page="1" pageScale="1" pageWidth="850" pageHeight="1100" math="0" shadow="0">
      <root>
        <mxCell id="0" />
        <mxCell id="1" parent="0" />
        <mxCell id="AsBp8XiL8Dx4Y6rQVwFH-709" value="R, W: 97, H: 96, ORDER: 11, GC: {40, 26, 31, 14, 12, 7, 24, 2, 17, 56, 41} " style="text;html=1;strokeColor=none;fillColor=none;align=center;verticalAlign=middle;whiteSpace=wrap;rounded=0;" parent="1" vertex="1">
          <mxGeometry x="1070" width="970" height="30" as="geometry" />
        </mxCell>
        <mxCell id="AsBp8XiL8Dx4Y6rQVwFH-913" value="R, W: 97, H: 65, ORDER: 11, GC: {65, 15, 8, 9, 7, 1, 10, 18, 4, 14, 32} " style="text;html=1;strokeColor=none;fillColor=none;align=center;verticalAlign=middle;whiteSpace=wrap;rounded=0;" parent="1" vertex="1">
          <mxGeometry x="1055" y="1230" width="970" height="30" as="geometry" />
        </mxCell>
        <mxCell id="AsBp8XiL8Dx4Y6rQVwFH-7059" value="R, W: 97, H: 94, ORDER: 18, GC: {40, 26, 31, 14, 12, 7, 24, 19, 2, 6, 16, 54, 17, 4, 10, 3, 23, 20} " style="text;html=1;strokeColor=none;fillColor=none;align=center;verticalAlign=middle;whiteSpace=wrap;rounded=0;" parent="1" vertex="1">
          <mxGeometry x="1055" y="2140" width="970" height="30" as="geometry" />
        </mxCell>
        <mxCell id="LV5SQou6H_aP64EfwUI1-2" value="" style="group;flipV=1;" vertex="1" connectable="0" parent="1">
          <mxGeometry x="1055" y="2190" width="970" height="940" as="geometry" />
        </mxCell>
        <mxCell id="761dnnyQ54j-Cl0NHfQN-7060" value="40" style="rounded=0;whiteSpace=wrap;html=1;" parent="LV5SQou6H_aP64EfwUI1-2" vertex="1">
          <mxGeometry y="540" width="400" height="400" as="geometry" />
        </mxCell>
        <mxCell id="761dnnyQ54j-Cl0NHfQN-7061" value="26" style="rounded=0;whiteSpace=wrap;html=1;" parent="LV5SQou6H_aP64EfwUI1-2" vertex="1">
          <mxGeometry x="400" y="680" width="260" height="260" as="geometry" />
        </mxCell>
        <mxCell id="761dnnyQ54j-Cl0NHfQN-7062" value="31" style="rounded=0;whiteSpace=wrap;html=1;" parent="LV5SQou6H_aP64EfwUI1-2" vertex="1">
          <mxGeometry x="660" y="630" width="310" height="310" as="geometry" />
        </mxCell>
        <mxCell id="761dnnyQ54j-Cl0NHfQN-7063" value="14" style="rounded=0;whiteSpace=wrap;html=1;" parent="LV5SQou6H_aP64EfwUI1-2" vertex="1">
          <mxGeometry x="400" y="540" width="140" height="140" as="geometry" />
        </mxCell>
        <mxCell id="761dnnyQ54j-Cl0NHfQN-7064" value="12" style="rounded=0;whiteSpace=wrap;html=1;" parent="LV5SQou6H_aP64EfwUI1-2" vertex="1">
          <mxGeometry x="540" y="560" width="120" height="120" as="geometry" />
        </mxCell>
        <mxCell id="761dnnyQ54j-Cl0NHfQN-7065" value="7" style="rounded=0;whiteSpace=wrap;html=1;" parent="LV5SQou6H_aP64EfwUI1-2" vertex="1">
          <mxGeometry x="660" y="560" width="70" height="70" as="geometry" />
        </mxCell>
        <mxCell id="761dnnyQ54j-Cl0NHfQN-7066" value="24" style="rounded=0;whiteSpace=wrap;html=1;" parent="LV5SQou6H_aP64EfwUI1-2" vertex="1">
          <mxGeometry x="730" y="390" width="240" height="240" as="geometry" />
        </mxCell>
        <mxCell id="761dnnyQ54j-Cl0NHfQN-7067" value="19" style="rounded=0;whiteSpace=wrap;html=1;" parent="LV5SQou6H_aP64EfwUI1-2" vertex="1">
          <mxGeometry x="540" y="370" width="190" height="190" as="geometry" />
        </mxCell>
        <mxCell id="761dnnyQ54j-Cl0NHfQN-7068" value="2" style="rounded=0;whiteSpace=wrap;html=1;" parent="LV5SQou6H_aP64EfwUI1-2" vertex="1">
          <mxGeometry x="730" y="370" width="20" height="20" as="geometry" />
        </mxCell>
        <mxCell id="761dnnyQ54j-Cl0NHfQN-7069" value="6" style="rounded=0;whiteSpace=wrap;html=1;" parent="LV5SQou6H_aP64EfwUI1-2" vertex="1">
          <mxGeometry x="750" y="330" width="60" height="60" as="geometry" />
        </mxCell>
        <mxCell id="761dnnyQ54j-Cl0NHfQN-7070" value="16" style="rounded=0;whiteSpace=wrap;html=1;" parent="LV5SQou6H_aP64EfwUI1-2" vertex="1">
          <mxGeometry x="810" y="230" width="160" height="160" as="geometry" />
        </mxCell>
        <mxCell id="761dnnyQ54j-Cl0NHfQN-7071" value="54" style="rounded=0;whiteSpace=wrap;html=1;" parent="LV5SQou6H_aP64EfwUI1-2" vertex="1">
          <mxGeometry width="540" height="540" as="geometry" />
        </mxCell>
        <mxCell id="761dnnyQ54j-Cl0NHfQN-7072" value="17" style="rounded=0;whiteSpace=wrap;html=1;" parent="LV5SQou6H_aP64EfwUI1-2" vertex="1">
          <mxGeometry x="540" y="200" width="170" height="170" as="geometry" />
        </mxCell>
        <mxCell id="761dnnyQ54j-Cl0NHfQN-7073" value="4" style="rounded=0;whiteSpace=wrap;html=1;" parent="LV5SQou6H_aP64EfwUI1-2" vertex="1">
          <mxGeometry x="710" y="330" width="40" height="40" as="geometry" />
        </mxCell>
        <mxCell id="761dnnyQ54j-Cl0NHfQN-7074" value="10" style="rounded=0;whiteSpace=wrap;html=1;" parent="LV5SQou6H_aP64EfwUI1-2" vertex="1">
          <mxGeometry x="710" y="230" width="100" height="100" as="geometry" />
        </mxCell>
        <mxCell id="761dnnyQ54j-Cl0NHfQN-7075" value="3" style="rounded=0;whiteSpace=wrap;html=1;" parent="LV5SQou6H_aP64EfwUI1-2" vertex="1">
          <mxGeometry x="710" y="200" width="30" height="30" as="geometry" />
        </mxCell>
        <mxCell id="761dnnyQ54j-Cl0NHfQN-7076" value="23" style="rounded=0;whiteSpace=wrap;html=1;" parent="LV5SQou6H_aP64EfwUI1-2" vertex="1">
          <mxGeometry x="740" width="230" height="230" as="geometry" />
        </mxCell>
        <mxCell id="761dnnyQ54j-Cl0NHfQN-7077" value="20" style="rounded=0;whiteSpace=wrap;html=1;" parent="LV5SQou6H_aP64EfwUI1-2" vertex="1">
          <mxGeometry x="540" width="200" height="200" as="geometry" />
        </mxCell>
        <mxCell id="LV5SQou6H_aP64EfwUI1-3" value="" style="group;flipV=1;" vertex="1" connectable="0" parent="1">
          <mxGeometry x="1055" y="1280" width="970" height="650" as="geometry" />
        </mxCell>
        <mxCell id="761dnnyQ54j-Cl0NHfQN-914" value="65" style="rounded=0;whiteSpace=wrap;html=1;" parent="LV5SQou6H_aP64EfwUI1-3" vertex="1">
          <mxGeometry width="650" height="650" as="geometry" />
        </mxCell>
        <mxCell id="761dnnyQ54j-Cl0NHfQN-915" value="15" style="rounded=0;whiteSpace=wrap;html=1;fillColor=#f5f5f5;strokeColor=#666666;fontColor=#333333;" parent="LV5SQou6H_aP64EfwUI1-3" vertex="1">
          <mxGeometry x="650" y="500" width="150" height="150" as="geometry" />
        </mxCell>
        <mxCell id="761dnnyQ54j-Cl0NHfQN-916" value="8" style="rounded=0;whiteSpace=wrap;html=1;fillColor=#f5f5f5;strokeColor=#666666;fontColor=#333333;" parent="LV5SQou6H_aP64EfwUI1-3" vertex="1">
          <mxGeometry x="800" y="570" width="80" height="80" as="geometry" />
        </mxCell>
        <mxCell id="761dnnyQ54j-Cl0NHfQN-917" value="9" style="rounded=0;whiteSpace=wrap;html=1;fillColor=#f5f5f5;strokeColor=#666666;fontColor=#333333;" parent="LV5SQou6H_aP64EfwUI1-3" vertex="1">
          <mxGeometry x="880" y="560" width="90" height="90" as="geometry" />
        </mxCell>
        <mxCell id="761dnnyQ54j-Cl0NHfQN-918" value="7" style="rounded=0;whiteSpace=wrap;html=1;fillColor=#f5f5f5;strokeColor=#666666;fontColor=#333333;" parent="LV5SQou6H_aP64EfwUI1-3" vertex="1">
          <mxGeometry x="800" y="500" width="70" height="70" as="geometry" />
        </mxCell>
        <mxCell id="761dnnyQ54j-Cl0NHfQN-919" value="1" style="rounded=0;whiteSpace=wrap;html=1;fillColor=#f5f5f5;strokeColor=#666666;fontColor=#333333;" parent="LV5SQou6H_aP64EfwUI1-3" vertex="1">
          <mxGeometry x="870" y="560" width="10" height="10" as="geometry" />
        </mxCell>
        <mxCell id="761dnnyQ54j-Cl0NHfQN-920" value="10" style="rounded=0;whiteSpace=wrap;html=1;fillColor=#f5f5f5;strokeColor=#666666;fontColor=#333333;" parent="LV5SQou6H_aP64EfwUI1-3" vertex="1">
          <mxGeometry x="870" y="460" width="100" height="100" as="geometry" />
        </mxCell>
        <mxCell id="761dnnyQ54j-Cl0NHfQN-921" value="18" style="rounded=0;whiteSpace=wrap;html=1;fillColor=#f5f5f5;strokeColor=#666666;fontColor=#333333;" parent="LV5SQou6H_aP64EfwUI1-3" vertex="1">
          <mxGeometry x="650" y="320" width="180" height="180" as="geometry" />
        </mxCell>
        <mxCell id="761dnnyQ54j-Cl0NHfQN-922" value="4" style="rounded=0;whiteSpace=wrap;html=1;fillColor=#f5f5f5;strokeColor=#666666;fontColor=#333333;" parent="LV5SQou6H_aP64EfwUI1-3" vertex="1">
          <mxGeometry x="830" y="460" width="40" height="40" as="geometry" />
        </mxCell>
        <mxCell id="761dnnyQ54j-Cl0NHfQN-923" value="14" style="rounded=0;whiteSpace=wrap;html=1;fillColor=#f5f5f5;strokeColor=#666666;fontColor=#333333;" parent="LV5SQou6H_aP64EfwUI1-3" vertex="1">
          <mxGeometry x="830" y="320" width="140" height="140" as="geometry" />
        </mxCell>
        <mxCell id="761dnnyQ54j-Cl0NHfQN-924" value="32" style="rounded=0;whiteSpace=wrap;html=1;" parent="LV5SQou6H_aP64EfwUI1-3" vertex="1">
          <mxGeometry x="650" width="320" height="320" as="geometry" />
        </mxCell>
        <mxCell id="LV5SQou6H_aP64EfwUI1-4" value="" style="group;flipV=1;" vertex="1" connectable="0" parent="1">
          <mxGeometry x="1070" y="50" width="970" height="960" as="geometry" />
        </mxCell>
        <mxCell id="761dnnyQ54j-Cl0NHfQN-710" value="40" style="rounded=0;whiteSpace=wrap;html=1;" parent="LV5SQou6H_aP64EfwUI1-4" vertex="1">
          <mxGeometry y="560" width="400" height="400" as="geometry" />
        </mxCell>
        <mxCell id="761dnnyQ54j-Cl0NHfQN-711" value="26" style="rounded=0;whiteSpace=wrap;html=1;" parent="LV5SQou6H_aP64EfwUI1-4" vertex="1">
          <mxGeometry x="400" y="700" width="260" height="260" as="geometry" />
        </mxCell>
        <mxCell id="761dnnyQ54j-Cl0NHfQN-712" value="31" style="rounded=0;whiteSpace=wrap;html=1;" parent="LV5SQou6H_aP64EfwUI1-4" vertex="1">
          <mxGeometry x="660" y="650" width="310" height="310" as="geometry" />
        </mxCell>
        <mxCell id="761dnnyQ54j-Cl0NHfQN-713" value="14" style="rounded=0;whiteSpace=wrap;html=1;" parent="LV5SQou6H_aP64EfwUI1-4" vertex="1">
          <mxGeometry x="400" y="560" width="140" height="140" as="geometry" />
        </mxCell>
        <mxCell id="761dnnyQ54j-Cl0NHfQN-714" value="12" style="rounded=0;whiteSpace=wrap;html=1;" parent="LV5SQou6H_aP64EfwUI1-4" vertex="1">
          <mxGeometry x="540" y="580" width="120" height="120" as="geometry" />
        </mxCell>
        <mxCell id="761dnnyQ54j-Cl0NHfQN-715" value="7" style="rounded=0;whiteSpace=wrap;html=1;" parent="LV5SQou6H_aP64EfwUI1-4" vertex="1">
          <mxGeometry x="660" y="580" width="70" height="70" as="geometry" />
        </mxCell>
        <mxCell id="761dnnyQ54j-Cl0NHfQN-716" value="24" style="rounded=0;whiteSpace=wrap;html=1;" parent="LV5SQou6H_aP64EfwUI1-4" vertex="1">
          <mxGeometry x="730" y="410" width="240" height="240" as="geometry" />
        </mxCell>
        <mxCell id="761dnnyQ54j-Cl0NHfQN-717" value="2" style="rounded=0;whiteSpace=wrap;html=1;" parent="LV5SQou6H_aP64EfwUI1-4" vertex="1">
          <mxGeometry x="540" y="560" width="20" height="20" as="geometry" />
        </mxCell>
        <mxCell id="761dnnyQ54j-Cl0NHfQN-718" value="17" style="rounded=0;whiteSpace=wrap;html=1;" parent="LV5SQou6H_aP64EfwUI1-4" vertex="1">
          <mxGeometry x="560" y="410" width="170" height="170" as="geometry" />
        </mxCell>
        <mxCell id="761dnnyQ54j-Cl0NHfQN-719" value="56" style="rounded=0;whiteSpace=wrap;html=1;" parent="LV5SQou6H_aP64EfwUI1-4" vertex="1">
          <mxGeometry width="560" height="560" as="geometry" />
        </mxCell>
        <mxCell id="761dnnyQ54j-Cl0NHfQN-720" value="41" style="rounded=0;whiteSpace=wrap;html=1;" parent="LV5SQou6H_aP64EfwUI1-4" vertex="1">
          <mxGeometry x="560" width="410" height="410" as="geometry" />
        </mxCell>
      </root>
    </mxGraphModel>
  </diagram>
</mxfile>
